<svg xmlns="http://www.w3.org/2000/svg" viewBox="0 0 128 47.95"><path d="M99.53,0a4,4,0,0,0-2.07.54c-1.27.84-5.92,15.31-7.86,22.74,0,0-.42,1.55-1,5.11-.09.58-.39,2.84-.52,3.54-.48,2.62-2.36,4-4,3.72-2-.38-2.31-3.38-1.77-5.62.6-2.45,2.61-5.21,4.93-4.54,1.12.26,1.7.13,1.77-.62.1-1-1-1.54-1-1.54-4.45-2.24-8.42,1.43-9.45,6.6-1.19,6,2.54,10.83,8.6,7.39,1.9-1.08,1.8,1.44,6.06,1.28,3.1-.3,4.87-2.59,3.26-3.85-1-.82-1.76.79-3.52.57-3.74-.48.45-11.37,2.62-18.15,1.85-5.78,3.92-9.94,5.67-14.63C102,.66,100.82,0,99.53,0ZM31.82,1.23C25.39,1.4,13.45,7.54,4.44,14.66c-3.7,3.21-5.83,4-3.42,6.54,2.15,2.14,3.52.51,3.52.51,2-1.6,6.43-6.09,9.32-8.23C18,10.43,23.66,6,28.69,4.85c4-1,5.21.17,4.67,4.24-.31,3.49-3,11.34-3,11.34S26.23,22.28,25,22.74c-1,.36-2,.11-2.08,2.31-.05,2.36,1.38,1.47,2.33,1.1.74-.28,2.49-1.11,3.14-1.38.48-.38,1-.06.74.64a68,68,0,0,1-3,7.73c-2.09,5-5.84,11.78-6.32,13.5.06,1.12,1.28,1.28,2.9,1.31a3,3,0,0,0,2.18-1.16s1.95-4.18,4.93-11.52C32,29.93,33.41,25.53,34,23.54a2.12,2.12,0,0,1,1.92-1.65,41.71,41.71,0,0,1,4.44-1.25c3-.73,3.8-.58,4.19-2.62a2.44,2.44,0,0,0-.36-2.08s-6.44,2-7.73,2.36c-1.12.48-.92-.69-.92-.69s-.16.74.54-2.31C38.2,6,37,3.54,35.29,2.13a5.14,5.14,0,0,0-3.47-.9Zm87.25,16.48c-1.11-.05-3.63,1.83-2.65,6.6-1.33,5-11.55,13.81-12.91,10.26-.33-.86.57-2.28,2.9-2.77,3.86-.8,3.54-3.2,1.7-3.44A50.78,50.78,0,0,1,101,27.18c-1.36-.14-1.32-1.95.28-1.92.67,0,2.32.2,5.86.33,3.7.14,4.43-2.74,4.28-4.52a28.56,28.56,0,0,1-7.93,1c-3.42,0-7.65.94-7.72,3.95s3.84,3.67,5.87,4.24c.57.13.76.6.39.9-.87.69-2.82,1.6-3.06,3.23-.33,2.31,1.78,4.14,4.45,4.08,3.55-.07,7.49-1.58,11.26-6.11,1.07-1.28,2.27-3.44,3-4.39a1,1,0,0,1,.89-.48c.68.14,1.65.65,1.52,1.38-.2,1.12-3.26,4.62-1.23,6.73a5.55,5.55,0,0,0,6.9.38c2.34-1.7,1.52-3.25.59-3.36-.66-.08-2.53,2.25-4,.59C121.06,31.86,124,29,124.61,28c.85-1.46-2.46-2.59-3.85-4.41-.9-1.2,1.43-4.85-1.49-5.83a.65.65,0,0,0-.2-.05Zm6.77,1.85a2.09,2.09,0,0,0-1.51.61,2.19,2.19,0,1,0,1.51-.61Zm0,.28a1.85,1.85,0,1,1,0,3.7,1.85,1.85,0,1,1,0-3.7Zm-.87.67v2.33h.41V22h.34a1.09,1.09,0,0,1,.46.05c.15.08.23.26.23.54v.2l0,.08a0,0,0,0,1,0,0h.39l0,0s0,0,0-.1,0-.13,0-.18v-.18a.66.66,0,0,0-.13-.36.5.5,0,0,0-.39-.23.85.85,0,0,0,.34-.11.55.55,0,0,0,.23-.48.57.57,0,0,0-.36-.59,1.89,1.89,0,0,0-.67-.08Zm.41.28h.36a1.16,1.16,0,0,1,.51.1.35.35,0,0,1,.16.34.35.35,0,0,1-.23.36,1.37,1.37,0,0,1-.41.05h-.39ZM55,21.48c-3.15.94-4.74.82-8.06.82-3.49,0-8.21.49-8,3.86.17,2.82,4.15,3.61,6.21,3.85.59-.06.76.5.33.79a7.3,7.3,0,0,0-2.13,3.29c-.31,2.27.86,4.28,3.75,4.23,3.11,0,4.12-2.31,9.32-5.47,1.45-.88,3.26-2.37,4-2.49.29,0,.7.1.67.65-.44,2.07-.92,3.47-.39,5.23a2.11,2.11,0,0,0,3.21,1.13c2-1.5,2-2.37,4.57-5.75.43-.56,2-3.11,2.72-2.77s.42,1.12.31,1.77c-.54,3.16-1.91,8.16,4.34,7.39,1.48-.18,2.69-1.19,1.56-2.26-.68-.64-1.45-.18-2.31-.38-2-.46,3-9.6.59-11.29-3.32-2.39-6.41,1.84-8.72,4.92-.91,1.22-1.59.69-2.18-1-.66-1.91-4.61-.51-6.88.66-3.63,1.87-10.34,8.13-11,5-.11-.54.78-1.74,2.41-2.34,1.91-.69,4.06-1.31,4.06-2.46,0-.89-.54-1.52-1.11-1.49-2.66.15-5.77.85-9.32-.13-.8,0-1.16-2,1.24-1.77.63.07,2,.18,7.41.28,3.78.08,3.87-2.75,3.37-4.26Z" style="fill:#d52b1e"/></svg>